<?xml version="1.0" encoding="UTF-8" standalone="no"?>
<!DOCTYPE svg PUBLIC "-//W3C//DTD SVG 1.1//EN"
 "http://www.w3.org/Graphics/SVG/1.1/DTD/svg11.dtd">
<!-- Generated by graphviz version 2.40.1 (20161225.0304)
 -->
<!-- Title: dependencies Pages: 1 -->
<svg width="755pt" height="284pt"
 viewBox="0.00 0.00 755.00 284.00" xmlns="http://www.w3.org/2000/svg" xmlns:xlink="http://www.w3.org/1999/xlink">
<g id="graph0" class="graph" transform="scale(1 1) rotate(0) translate(4 280)">
<title>dependencies</title>
<polygon fill="#ffffff" stroke="transparent" points="-4,4 -4,-280 751,-280 751,4 -4,4"/>
<text text-anchor="start" x="352.5091" y="-42.4" font-family="sans-serif" font-weight="bold" font-size="14.00" fill="#000000">Legend</text>
<polygon fill="#ffffb3" stroke="transparent" points="139.5,-10 139.5,-30 159.5,-30 159.5,-10 139.5,-10"/>
<text text-anchor="start" x="163.129" y="-15.4" font-family="sans-serif" font-size="14.00" fill="#000000"> &#160;Declarations</text>
<polygon fill="#8dd3c7" stroke="transparent" points="252.5,-10 252.5,-30 272.5,-30 272.5,-10 252.5,-10"/>
<text text-anchor="start" x="276.2251" y="-15.4" font-family="sans-serif" font-size="14.00" fill="#000000"> &#160;Module</text>
<polygon fill="#80b1d3" stroke="transparent" points="338.5,-10 338.5,-30 358.5,-30 358.5,-10 338.5,-10"/>
<text text-anchor="start" x="362.2812" y="-15.4" font-family="sans-serif" font-size="14.00" fill="#000000"> &#160;Bootstrap</text>
<polygon fill="#fdb462" stroke="transparent" points="435.5,-10 435.5,-30 455.5,-30 455.5,-10 435.5,-10"/>
<text text-anchor="start" x="459.1732" y="-15.4" font-family="sans-serif" font-size="14.00" fill="#000000"> &#160;Providers</text>
<polygon fill="#fb8072" stroke="transparent" points="531.5,-10 531.5,-30 551.5,-30 551.5,-10 531.5,-10"/>
<text text-anchor="start" x="555.2258" y="-15.4" font-family="sans-serif" font-size="14.00" fill="#000000"> &#160;Exports</text>
<g id="clust1" class="cluster">
<title>cluster_AppModule</title>
<polygon fill="none" stroke="#000000" stroke-dasharray="1,5" points="8,-70 8,-268 739,-268 739,-70 8,-70"/>
</g>
<g id="clust2" class="cluster">
<title>cluster_AppModule_declarations</title>
<polygon fill="none" stroke="#000000" points="154,-78 154,-130 731,-130 731,-78 154,-78"/>
</g>
<g id="clust9" class="cluster">
<title>cluster_AppModule_bootstrap</title>
<polygon fill="none" stroke="#000000" points="327,-208 327,-260 451,-260 451,-208 327,-208"/>
</g>
<g id="clust10" class="cluster">
<title>cluster_AppModule_providers</title>
<polygon fill="none" stroke="#000000" points="16,-78 16,-130 146,-130 146,-78 16,-78"/>
</g>
<!-- AppComponent -->
<g id="node1" class="node">
<title>AppComponent</title>
<polygon fill="#ffffb3" stroke="#000000" points="722.9399,-122 617.0601,-122 617.0601,-86 722.9399,-86 722.9399,-122"/>
<text text-anchor="middle" x="670" y="-99.8" font-family="Times,serif" font-size="14.00" fill="#000000">AppComponent</text>
</g>
<!-- AppModule -->
<g id="node5" class="node">
<title>AppModule</title>
<polygon fill="#8dd3c7" stroke="#000000" points="430.6571,-187 427.6571,-191 406.6571,-191 403.6571,-187 347.3429,-187 347.3429,-151 430.6571,-151 430.6571,-187"/>
<text text-anchor="middle" x="389" y="-164.8" font-family="Times,serif" font-size="14.00" fill="#000000">AppModule</text>
</g>
<!-- AppComponent&#45;&gt;AppModule -->
<g id="edge1" class="edge">
<title>AppComponent&#45;&gt;AppModule</title>
<path fill="none" stroke="#000000" d="M670,-122.2843C670,-143.3211 670,-175 670,-175 670,-175 440.7651,-175 440.7651,-175"/>
<polygon fill="#000000" stroke="#000000" points="440.7652,-171.5001 430.7651,-175 440.7651,-178.5001 440.7652,-171.5001"/>
</g>
<!-- NewpostComponent -->
<g id="node2" class="node">
<title>NewpostComponent</title>
<polygon fill="#ffffb3" stroke="#000000" points="599.5954,-122 468.4046,-122 468.4046,-86 599.5954,-86 599.5954,-122"/>
<text text-anchor="middle" x="534" y="-99.8" font-family="Times,serif" font-size="14.00" fill="#000000">NewpostComponent</text>
</g>
<!-- NewpostComponent&#45;&gt;AppModule -->
<g id="edge2" class="edge">
<title>NewpostComponent&#45;&gt;AppModule</title>
<path fill="none" stroke="#000000" d="M534,-122.0225C534,-139.3734 534,-163 534,-163 534,-163 440.94,-163 440.94,-163"/>
<polygon fill="#000000" stroke="#000000" points="440.94,-159.5001 430.94,-163 440.94,-166.5001 440.94,-159.5001"/>
</g>
<!-- PostlistComponent -->
<g id="node3" class="node">
<title>PostlistComponent</title>
<polygon fill="#ffffb3" stroke="#000000" points="450.0674,-122 327.9326,-122 327.9326,-86 450.0674,-86 450.0674,-122"/>
<text text-anchor="middle" x="389" y="-99.8" font-family="Times,serif" font-size="14.00" fill="#000000">PostlistComponent</text>
</g>
<!-- PostlistComponent&#45;&gt;AppModule -->
<g id="edge3" class="edge">
<title>PostlistComponent&#45;&gt;AppModule</title>
<path fill="none" stroke="#000000" d="M389,-122.1061C389,-122.1061 389,-140.991 389,-140.991"/>
<polygon fill="#000000" stroke="#000000" points="385.5001,-140.9909 389,-150.991 392.5001,-140.991 385.5001,-140.9909"/>
</g>
<!-- PostlistitemComponent -->
<g id="node4" class="node">
<title>PostlistitemComponent</title>
<polygon fill="#ffffb3" stroke="#000000" points="309.9537,-122 162.0463,-122 162.0463,-86 309.9537,-86 309.9537,-122"/>
<text text-anchor="middle" x="236" y="-99.8" font-family="Times,serif" font-size="14.00" fill="#000000">PostlistitemComponent</text>
</g>
<!-- PostlistitemComponent&#45;&gt;AppModule -->
<g id="edge4" class="edge">
<title>PostlistitemComponent&#45;&gt;AppModule</title>
<path fill="none" stroke="#000000" d="M236,-122.0225C236,-139.3734 236,-163 236,-163 236,-163 337.1921,-163 337.1921,-163"/>
<polygon fill="#000000" stroke="#000000" points="337.1921,-166.5001 347.1921,-163 337.192,-159.5001 337.1921,-166.5001"/>
</g>
<!-- AppComponent  -->
<g id="node6" class="node">
<title>AppComponent </title>
<polygon fill="#80b1d3" stroke="#000000" points="443.439,-252 334.561,-252 334.561,-216 443.439,-216 443.439,-252"/>
<text text-anchor="middle" x="389" y="-229.8" font-family="Times,serif" font-size="14.00" fill="#000000">AppComponent </text>
</g>
<!-- AppModule&#45;&gt;AppComponent  -->
<g id="edge5" class="edge">
<title>AppModule&#45;&gt;AppComponent </title>
<path fill="none" stroke="#000000" stroke-dasharray="1,5" d="M389,-187.1061C389,-187.1061 389,-205.991 389,-205.991"/>
<polygon fill="#000000" stroke="#000000" points="385.5001,-205.9909 389,-215.991 392.5001,-205.991 385.5001,-205.9909"/>
</g>
<!-- PostService -->
<g id="node7" class="node">
<title>PostService</title>
<ellipse fill="#fdb462" stroke="#000000" cx="81" cy="-104" rx="56.7561" ry="18"/>
<text text-anchor="middle" x="81" y="-99.8" font-family="Times,serif" font-size="14.00" fill="#000000">PostService</text>
</g>
<!-- PostService&#45;&gt;AppModule -->
<g id="edge6" class="edge">
<title>PostService&#45;&gt;AppModule</title>
<path fill="none" stroke="#000000" d="M81,-122.2843C81,-143.3211 81,-175 81,-175 81,-175 337.1412,-175 337.1412,-175"/>
<polygon fill="#000000" stroke="#000000" points="337.1412,-178.5001 347.1412,-175 337.1412,-171.5001 337.1412,-178.5001"/>
</g>
</g>
</svg>
